<mxfile host="app.diagrams.net" agent="Mozilla/5.0 (Windows NT 10.0; Win64; x64) AppleWebKit/537.36 (KHTML, like Gecko) Chrome/129.0.0.0 Safari/537.36" version="26.2.14">
  <diagram name="第 1 页" id="cxOIMT9CrhXrCGaVQ_hj">
    <mxGraphModel dx="1072" dy="567" grid="1" gridSize="10" guides="1" tooltips="1" connect="1" arrows="1" fold="1" page="1" pageScale="1" pageWidth="1654" pageHeight="1169" math="0" shadow="0">
      <root>
        <mxCell id="0" />
        <mxCell id="1" parent="0" />
        <mxCell id="cnqvoqYelQEDcmGMp8Uq-1" value="&lt;b&gt;NHP服务器&lt;/b&gt;&lt;div&gt;&lt;b&gt;（NHP-Server）&lt;/b&gt;&lt;/div&gt;" style="shape=cylinder3;whiteSpace=wrap;html=1;boundedLbl=1;backgroundOutline=1;size=15;fillColor=none;" vertex="1" parent="1">
          <mxGeometry x="640" y="110" width="200" height="80" as="geometry" />
        </mxCell>
        <mxCell id="cnqvoqYelQEDcmGMp8Uq-2" value="&lt;b&gt;NHP数据经纪&lt;/b&gt;&lt;div&gt;&lt;b&gt;（NHP-DB）&lt;/b&gt;&lt;/div&gt;" style="ellipse;whiteSpace=wrap;html=1;fillColor=none;" vertex="1" parent="1">
          <mxGeometry x="220" y="110" width="180" height="80" as="geometry" />
        </mxCell>
        <mxCell id="cnqvoqYelQEDcmGMp8Uq-3" value="" style="endArrow=classic;html=1;rounded=0;exitX=0.977;exitY=0.332;exitDx=0;exitDy=0;entryX=-0.003;entryY=0.263;entryDx=0;entryDy=0;entryPerimeter=0;exitPerimeter=0;" edge="1" parent="1" source="cnqvoqYelQEDcmGMp8Uq-2">
          <mxGeometry relative="1" as="geometry">
            <mxPoint x="390.64" y="136.40000000000003" as="sourcePoint" />
            <mxPoint x="639.4000000000001" y="137.04000000000002" as="targetPoint" />
          </mxGeometry>
        </mxCell>
        <mxCell id="cnqvoqYelQEDcmGMp8Uq-4" value="NHP-DRG数据对象注册消息" style="edgeLabel;resizable=0;html=1;;align=center;verticalAlign=middle;" connectable="0" vertex="1" parent="cnqvoqYelQEDcmGMp8Uq-3">
          <mxGeometry relative="1" as="geometry" />
        </mxCell>
        <mxCell id="cnqvoqYelQEDcmGMp8Uq-5" value="" style="endArrow=classic;html=1;rounded=0;entryX=0.964;entryY=0.679;entryDx=0;entryDy=0;entryPerimeter=0;exitX=0;exitY=0.625;exitDx=0;exitDy=0;exitPerimeter=0;" edge="1" parent="1" target="cnqvoqYelQEDcmGMp8Uq-2">
          <mxGeometry relative="1" as="geometry">
            <mxPoint x="640.0000000000002" y="165.0000000000001" as="sourcePoint" />
            <mxPoint x="399.9999999999998" y="165.0000000000001" as="targetPoint" />
          </mxGeometry>
        </mxCell>
        <mxCell id="cnqvoqYelQEDcmGMp8Uq-6" value="NHP-DAK数据对象注册响应" style="edgeLabel;resizable=0;html=1;;align=center;verticalAlign=middle;" connectable="0" vertex="1" parent="cnqvoqYelQEDcmGMp8Uq-5">
          <mxGeometry relative="1" as="geometry" />
        </mxCell>
      </root>
    </mxGraphModel>
  </diagram>
</mxfile>
